<?xml version="1.0" encoding="UTF-8" standalone="no"?><!DOCTYPE svg PUBLIC "-//W3C//DTD SVG 1.1//EN" "http://www.w3.org/Graphics/SVG/1.1/DTD/svg11.dtd"><svg width="100%" height="100%" viewBox="0 0 318 350" version="1.1" xmlns="http://www.w3.org/2000/svg" xmlns:xlink="http://www.w3.org/1999/xlink" xml:space="preserve" xmlns:serif="http://www.serif.com/" style="fill-rule:evenodd;clip-rule:evenodd;stroke-linejoin:round;stroke-miterlimit:2;"><g><path d="M34.626,1.506c13.211,-3.418 27.978,-0.99 39.107,7.004c10.332,7.068 17.593,18.493 19.611,30.856c1.144,6.349 0.758,12.813 0.797,19.226c-0.039,16.269 -0.116,32.539 -0.077,48.809c0.09,6.811 -1.671,13.828 -5.912,19.264c-4.549,5.783 -10.127,10.615 -15.254,15.846c-11.335,11.36 -22.927,22.451 -34.493,33.58c-3.265,3.059 -6.619,6.272 -10.885,7.878c-8.508,3.239 -18.93,0.129 -24.264,-7.235c-2.634,-3.663 -3.213,-8.289 -3.135,-12.684c-0.026,-36.01 -0.129,-72.019 -0.09,-108.042c0.051,-7.273 -0.502,-14.727 1.567,-21.808c4.216,-15.73 17.401,-28.453 33.028,-32.694Z" style="fill:#fff;fill-rule:nonzero;"/><path d="M186.131,34.894c40.52,-0.604 81.079,0.064 121.612,-0.026c2.943,0.206 6.837,-0.745 8.584,2.365c2.918,3.572 -0.09,7.865 -2.853,10.409c-35.431,36.1 -71.659,71.415 -107.321,107.283c-9.33,8.688 -17.786,18.3 -27.489,26.577c-7.467,6.387 -19.187,3.688 -25.51,-3.033c-14.393,-14.278 -29.198,-28.183 -43.193,-42.834c-7.107,-6.888 -7.017,-18.93 -0.861,-26.358c4.408,-5.449 9.754,-10.011 14.689,-14.946c18.943,-18.75 37.898,-37.474 57.124,-55.916c1.632,-1.272 3.136,-3.02 5.218,-3.521Z" style="fill:#fff;fill-rule:nonzero;"/><path d="M12.612,197.939c7.672,-2.622 16.604,-0.81 22.67,4.549c15.768,14.65 30.92,29.982 46.406,44.928c7.865,7.3 12.479,17.735 12.928,28.427c0.283,8.135 -0.077,16.283 -0.27,24.431c-0.257,14.817 -6.759,29.853 -18.75,38.913c-15.434,12.543 -39.132,13.327 -55.337,1.774c-12.518,-8.919 -20.601,-24.122 -20.126,-39.582c-0.038,-29.057 -0.077,-58.127 -0.025,-87.184c-0.592,-7.672 5.834,-13.763 12.504,-16.256Z" style="fill:#fff;fill-rule:nonzero;"/><path d="M162.613,197.54c7.428,-2.365 15.203,0.887 20.318,6.374c42.242,41.279 83.379,83.688 125.583,125.031c2.789,2.789 5.834,5.372 8.16,8.585c2.365,4.279 -1.323,10.371 -6.297,9.844c-34.3,0.372 -68.6,0.115 -102.9,0.27c-6.387,-0.103 -12.8,0.167 -19.162,-0.463c-2.274,0.013 -3.919,-1.632 -5.526,-2.969c-9.266,-8.302 -17.606,-17.542 -26.641,-26.075c-14.252,-14.021 -28.581,-27.952 -42.936,-41.857c-4.948,-4.87 -9.06,-11.412 -8.289,-18.621c0.54,-7.801 6.387,-13.61 11.605,-18.815c9.831,-9.497 19.598,-19.045 29.519,-28.453c5.025,-4.806 9.716,-10.628 16.566,-12.851Z" style="fill:#fff;fill-rule:nonzero;"/></g></svg>